<svg width="112" height="66" viewBox="0 0 112 66" fill="none" xmlns="http://www.w3.org/2000/svg">
<path d="M0 61.1445C0.311168 63.2338 2.31153 65.1008 5.31208 65.1008C9.42395 65.1008 11.0465 62.3669 11.0465 59.3664V49.6091H8.2015V50.8982C7.82365 50.1647 6.82347 49.409 5.08982 49.409C2.08927 49.409 0 51.8539 0 54.7433C0 57.8106 2.17818 60.0554 5.08982 60.0554C6.66789 60.0554 7.6903 59.3664 8.13482 58.6552V59.4553C8.13482 61.5668 7.09019 62.5003 5.22318 62.5003C3.82292 62.5003 2.86719 61.6335 2.66715 60.4333L0 61.1445ZM5.60103 57.5216C4.06741 57.5216 2.97832 56.4548 2.97832 54.7433C2.97832 53.0541 4.13409 51.9873 5.60103 51.9873C7.02351 51.9873 8.17927 53.0541 8.17927 54.7433C8.17927 56.4325 7.11241 57.5216 5.60103 57.5216Z" fill="#6966FF"/>
<path d="M17.0146 49.6091H14.0585V60.5444H17.0146V51.6094C17.0813 52.6318 17.9258 53.4098 18.9927 53.4098C20.104 53.4098 20.9708 52.5429 20.9708 51.4316C20.9708 50.3203 20.104 49.4535 18.9927 49.4535C17.9258 49.4535 17.0813 50.2536 17.0146 51.2983V49.6091Z" fill="#6966FF"/>
<path d="M22.0961 57.5661C22.0961 59.2775 23.5185 60.8556 25.8523 60.8556C27.4748 60.8556 28.5195 60.0999 29.0751 59.233C29.0751 59.6553 29.1196 60.2554 29.1862 60.5444H31.8979C31.8312 60.1665 31.7645 59.3886 31.7645 58.8107V53.432C31.7645 51.2316 30.4754 49.2757 27.0081 49.2757C24.0742 49.2757 22.4961 51.1649 22.3183 52.8763L24.941 53.432C25.0299 52.4763 25.7412 51.6539 27.0303 51.6539C28.275 51.6539 28.8751 52.2984 28.8751 53.0764C28.8751 53.4542 28.675 53.7654 28.0527 53.8543L25.3633 54.2544C23.5408 54.5211 22.0961 55.6102 22.0961 57.5661ZM26.4746 58.6552C25.5189 58.6552 25.0522 58.0328 25.0522 57.3883C25.0522 56.5437 25.6523 56.1214 26.408 56.0102L28.8751 55.6324V56.1214C28.8751 58.055 27.7193 58.6552 26.4746 58.6552Z" fill="#6966FF"/>
<path d="M37.6564 54.2544C37.6564 52.9875 38.4121 51.9873 39.7012 51.9873C41.1237 51.9873 41.7238 52.943 41.7238 54.1654V60.5444H44.6799V53.6542C44.6799 51.2538 43.4352 49.3201 40.7236 49.3201C39.5456 49.3201 38.2342 49.8313 37.5675 50.9649V49.6091H34.7003V60.5444H37.6564V54.2544Z" fill="#6966FF"/>
<path d="M51.4384 46.3418H48.7712V47.8754C48.7712 48.8534 48.2378 49.6091 47.0821 49.6091H46.5264V52.2318H48.5045V57.3216C48.5045 59.4331 49.8381 60.7 51.9718 60.7C52.8387 60.7 53.3721 60.5444 53.6388 60.4333V57.9884C53.4832 58.0328 53.0831 58.0773 52.7275 58.0773C51.8829 58.0773 51.4384 57.7661 51.4384 56.8104V52.2318H53.6388V49.6091H51.4384V46.3418Z" fill="#6966FF"/>
<path d="M55.2815 57.4994C55.4148 58.7441 56.5484 60.8778 59.8379 60.8778C62.705 60.8778 64.0831 59.0552 64.0831 57.2771C64.0831 55.6768 62.994 54.3655 60.838 53.921L59.2822 53.5876C58.6821 53.4764 58.282 53.143 58.282 52.6096C58.282 51.9873 58.9044 51.5205 59.6823 51.5205C60.9269 51.5205 61.3937 52.3429 61.4826 52.9875L63.9497 52.4318C63.8164 51.2538 62.7717 49.2757 59.66 49.2757C57.3041 49.2757 55.5704 50.8982 55.5704 52.8541C55.5704 54.3877 56.5261 55.6546 58.6376 56.1214L60.0823 56.4548C60.9269 56.6326 61.2603 57.0326 61.2603 57.5216C61.2603 58.0995 60.7936 58.6107 59.8156 58.6107C58.5265 58.6107 57.8819 57.8106 57.8153 56.9437L55.2815 57.4994Z" fill="#6966FF"/>
<path fill-rule="evenodd" clip-rule="evenodd" d="M86.221 34.2363C86.425 34.2363 86.5904 34.4017 86.5904 34.6058L86.5904 34.6307C86.5904 34.8347 86.425 35.0001 86.221 35.0001C86.017 35.0001 85.8516 34.8347 85.8516 34.6307L85.8516 34.6058C85.8516 34.4017 86.017 34.2363 86.221 34.2363ZM86.221 38.2536C86.425 38.2536 86.5904 38.419 86.5904 38.6231L86.5904 38.673C86.5904 38.877 86.425 39.0424 86.221 39.0424C86.017 39.0424 85.8516 38.877 85.8516 38.673L85.8516 38.6231C85.8516 38.419 86.017 38.2536 86.221 38.2536ZM86.221 42.2959C86.425 42.2959 86.5904 42.4613 86.5904 42.6653L86.5904 42.7152C86.5904 42.9193 86.425 43.0847 86.221 43.0847C86.017 43.0847 85.8516 42.9193 85.8516 42.7152L85.8516 42.6653C85.8516 42.4613 86.017 42.2959 86.221 42.2959ZM86.221 46.3382C86.425 46.3382 86.5904 46.5036 86.5904 46.7076L86.5904 46.7575C86.5904 46.9615 86.425 47.1269 86.221 47.1269C86.017 47.1269 85.8516 46.9615 85.8516 46.7575L85.8516 46.7076C85.8516 46.5036 86.017 46.3382 86.221 46.3382ZM86.221 50.3805C86.425 50.3805 86.5904 50.5459 86.5904 50.7499L86.5904 50.7748C86.5904 50.9789 86.425 51.1443 86.221 51.1443C86.017 51.1443 85.8516 50.9789 85.8516 50.7748L85.8516 50.7499C85.8516 50.5459 86.017 50.3805 86.221 50.3805Z" fill="#55555E"/>
<path fill-rule="evenodd" clip-rule="evenodd" d="M86.221 4.20703C86.425 4.20703 86.5904 4.37243 86.5904 4.57646L86.5904 4.59984C86.5904 4.80387 86.425 4.96926 86.221 4.96926C86.017 4.96926 85.8516 4.80387 85.8516 4.59984L85.8516 4.57646C85.8516 4.37243 86.017 4.20703 86.221 4.20703ZM86.221 7.97154C86.425 7.97154 86.5904 8.13694 86.5904 8.34097L86.5904 8.38773C86.5904 8.59176 86.425 8.75716 86.221 8.75716C86.017 8.75716 85.8516 8.59176 85.8516 8.38773L85.8516 8.34097C85.8516 8.13694 86.017 7.97154 86.221 7.97154ZM86.221 11.7594C86.425 11.7594 86.5904 11.9248 86.5904 12.1289L86.5904 12.1756C86.5904 12.3797 86.425 12.545 86.221 12.545C86.017 12.545 85.8516 12.3797 85.8516 12.1756L85.8516 12.1289C85.8516 11.9248 86.017 11.7594 86.221 11.7594ZM86.221 15.5473C86.425 15.5473 86.5904 15.7127 86.5904 15.9168L86.5904 15.9401C86.5904 16.1442 86.425 16.3096 86.221 16.3096C86.017 16.3096 85.8516 16.1442 85.8516 15.9401L85.8516 15.9168C85.8516 15.7127 86.017 15.5473 86.221 15.5473Z" fill="#55555E"/>
<path fill-rule="evenodd" clip-rule="evenodd" d="M111.566 25.7972C111.566 26.0012 111.401 26.1666 111.197 26.1666L111.175 26.1666C110.971 26.1666 110.805 26.0012 110.805 25.7972C110.805 25.5931 110.971 25.4277 111.175 25.4277L111.197 25.4277C111.401 25.4277 111.566 25.5931 111.566 25.7972ZM107.968 25.7972C107.968 26.0012 107.802 26.1666 107.598 26.1666L107.554 26.1666C107.35 26.1666 107.184 26.0012 107.184 25.7972C107.184 25.5931 107.35 25.4277 107.554 25.4277L107.598 25.4277C107.802 25.4277 107.968 25.5931 107.968 25.7972ZM104.347 25.7972C104.347 26.0012 104.181 26.1666 103.977 26.1666L103.933 26.1666C103.729 26.1666 103.563 26.0012 103.563 25.7972C103.563 25.5931 103.729 25.4277 103.933 25.4277L103.977 25.4277C104.181 25.4277 104.347 25.5931 104.347 25.7972ZM100.726 25.7972C100.726 26.0012 100.561 26.1666 100.357 26.1666L100.312 26.1666C100.108 26.1666 99.9424 26.0012 99.9424 25.7972C99.9424 25.5931 100.108 25.4277 100.312 25.4277L100.357 25.4277C100.561 25.4277 100.726 25.5931 100.726 25.7972ZM97.105 25.7972C97.105 26.0012 96.9396 26.1666 96.7356 26.1666L96.6909 26.1666C96.4868 26.1666 96.3214 26.0012 96.3214 25.7972C96.3214 25.5931 96.4868 25.4277 96.6909 25.4277L96.7356 25.4277C96.9396 25.4277 97.105 25.5931 97.105 25.7972ZM93.4841 25.7972C93.4841 26.0012 93.3187 26.1666 93.1146 26.1666L93.0923 26.1666C92.8883 26.1666 92.7229 26.0012 92.7229 25.7972C92.7229 25.5931 92.8883 25.4277 93.0923 25.4277L93.1146 25.4277C93.3187 25.4277 93.4841 25.5931 93.4841 25.7972Z" fill="#55555E"/>
<path fill-rule="evenodd" clip-rule="evenodd" d="M79.875 25.7972C79.875 26.0012 79.7096 26.1666 79.5056 26.1666H79.483C79.279 26.1666 79.1136 26.0012 79.1136 25.7972C79.1136 25.5931 79.279 25.4277 79.483 25.4277H79.5056C79.7096 25.4277 79.875 25.5931 79.875 25.7972ZM76.245 25.7972C76.245 26.0012 76.0796 26.1666 75.8755 26.1666H75.8304C75.6264 26.1666 75.461 26.0012 75.461 25.7972C75.461 25.5931 75.6264 25.4277 75.8304 25.4277H75.8755C76.0796 25.4277 76.245 25.5931 76.245 25.7972ZM72.5924 25.7972C72.5924 26.0012 72.427 26.1666 72.223 26.1666H72.1779C71.9738 26.1666 71.8084 26.0012 71.8084 25.7972C71.8084 25.5931 71.9738 25.4277 72.1779 25.4277H72.223C72.427 25.4277 72.5924 25.5931 72.5924 25.7972Z" fill="#55555E"/>
<path fill-rule="evenodd" clip-rule="evenodd" d="M86.1964 0.451172H86.2458C86.4498 0.451367 86.615 0.616921 86.6148 0.820949C86.6146 1.02498 86.4491 1.19022 86.2451 1.19002H86.1971C85.9931 1.19022 85.8275 1.02498 85.8273 0.820949C85.8271 0.616921 85.9923 0.451367 86.1964 0.451172ZM82.7047 1.06362C82.7362 1.2652 82.5983 1.45414 82.3967 1.48561L82.3494 1.49304C82.1479 1.52491 81.9587 1.38738 81.9268 1.18586C81.8949 0.984338 82.0325 0.795135 82.234 0.763263L82.2827 0.755612C82.4843 0.724133 82.6732 0.862031 82.7047 1.06362ZM89.7375 1.06362C89.7689 0.862032 89.9579 0.724133 90.1595 0.755612L90.2081 0.763264C90.4097 0.795135 90.5472 0.984339 90.5153 1.18586C90.4835 1.38738 90.2942 1.52491 90.0927 1.49304L90.0455 1.48561C89.8439 1.45414 89.706 1.2652 89.7375 1.06362ZM93.5613 1.91462C93.6241 1.7205 93.8324 1.61407 94.0265 1.67689L94.0733 1.69209C94.2673 1.75529 94.3733 1.96379 94.3101 2.15778C94.2469 2.35177 94.0384 2.45779 93.8444 2.39459L93.799 2.37985C93.6049 2.31702 93.4984 2.10873 93.5613 1.91462ZM78.8809 1.91462C78.9437 2.10873 78.8372 2.31702 78.6431 2.37985L78.5977 2.39459C78.4037 2.45779 78.1952 2.35177 78.132 2.15778C78.0688 1.96379 78.1749 1.75529 78.3688 1.69209L78.4156 1.6769C78.6097 1.61407 78.818 1.7205 78.8809 1.91462ZM97.2029 3.35734C97.2955 3.17554 97.5179 3.10322 97.6997 3.19582L97.7435 3.21815C97.9251 3.3111 97.997 3.53369 97.904 3.71531C97.8111 3.89694 97.5885 3.96882 97.4069 3.87587L97.3644 3.85419C97.1826 3.76159 97.1103 3.53915 97.2029 3.35734ZM75.2393 3.35734C75.3318 3.53915 75.2595 3.76159 75.0777 3.85419L75.0353 3.87587C74.8536 3.96882 74.631 3.89694 74.5381 3.71532C74.4451 3.53369 74.517 3.3111 74.6986 3.21815L74.7424 3.19582C74.9242 3.10322 75.1467 3.17554 75.2393 3.35734ZM71.8695 5.35399C71.9894 5.51907 71.9528 5.75009 71.7877 5.86999L71.7492 5.89804C71.5843 6.01826 71.3532 5.98208 71.233 5.81723C71.1128 5.65238 71.149 5.42129 71.3138 5.30107L71.3535 5.27218C71.5186 5.15228 71.7496 5.18891 71.8695 5.35399ZM100.573 5.35399C100.692 5.18891 100.924 5.15228 101.089 5.27218L101.128 5.30107C101.293 5.42129 101.329 5.65238 101.209 5.81723C101.089 5.98208 100.858 6.01826 100.693 5.89804L100.654 5.86999C100.489 5.75009 100.453 5.51907 100.573 5.35399ZM68.8526 7.85215C68.9968 7.99656 68.9965 8.23046 68.8521 8.37459L68.8184 8.40832C68.6743 8.55272 68.4404 8.55295 68.296 8.40882C68.1515 8.26469 68.1513 8.03078 68.2955 7.88637L68.3302 7.85165C68.4746 7.70752 68.7085 7.70774 68.8526 7.85215ZM103.59 7.85215C103.734 7.70774 103.968 7.70752 104.112 7.85165L104.147 7.88637C104.291 8.03078 104.291 8.26469 104.146 8.40882C104.002 8.55295 103.768 8.55272 103.624 8.40832L103.59 8.37459C103.446 8.23046 103.445 7.99656 103.59 7.85215ZM106.181 10.7892C106.346 10.669 106.577 10.7052 106.697 10.87L106.726 10.9097C106.846 11.0748 106.809 11.3058 106.644 11.4257C106.479 11.5456 106.248 11.509 106.128 11.3439L106.1 11.3054C105.98 11.1405 106.016 10.9094 106.181 10.7892ZM108.283 14.0943C108.465 14.0013 108.687 14.0732 108.78 14.2548L108.803 14.2986C108.895 14.4804 108.823 14.7028 108.641 14.7954C108.459 14.888 108.237 14.8157 108.144 14.6339L108.122 14.5914C108.03 14.4098 108.101 14.1872 108.283 14.0943ZM109.841 17.6882C110.035 17.625 110.243 17.731 110.306 17.925L110.321 17.9718C110.384 18.1659 110.278 18.3742 110.084 18.437C109.89 18.4999 109.681 18.3934 109.618 18.1993L109.604 18.1539C109.541 17.9599 109.647 17.7514 109.841 17.6882ZM110.812 21.483C111.014 21.4511 111.203 21.5887 111.235 21.7902L111.243 21.8389C111.274 22.0405 111.136 22.2294 110.935 22.2609C110.733 22.2924 110.544 22.1545 110.513 21.9529L110.505 21.9056C110.473 21.7041 110.611 21.5149 110.812 21.483ZM111.177 25.3835C111.381 25.3833 111.547 25.5485 111.547 25.7526V25.802C111.547 26.006 111.381 26.1712 111.177 26.171C110.973 26.1708 110.808 26.0053 110.808 25.8012V25.7533C110.808 25.5492 110.973 25.3837 111.177 25.3835ZM110.935 29.2936C111.136 29.3251 111.274 29.5141 111.243 29.7156L111.235 29.7643C111.203 29.9659 111.014 30.1034 110.812 30.0715C110.611 30.0396 110.473 29.8504 110.505 29.6489L110.513 29.6017C110.544 29.4001 110.733 29.2622 110.935 29.2936ZM110.084 33.1175C110.278 33.1803 110.384 33.3886 110.321 33.5827L110.306 33.6295C110.243 33.8235 110.035 33.9295 109.841 33.8663C109.647 33.8031 109.541 33.5946 109.604 33.4006L109.618 33.3552C109.681 33.1611 109.89 33.0546 110.084 33.1175ZM108.641 36.7591C108.823 36.8517 108.895 37.0741 108.803 37.2559L108.78 37.2997C108.687 37.4813 108.465 37.5532 108.283 37.4602C108.101 37.3673 108.03 37.1447 108.122 36.9631L108.144 36.9206C108.237 36.7388 108.459 36.6665 108.641 36.7591ZM106.644 40.1288C106.809 40.2487 106.846 40.4797 106.726 40.6448L106.697 40.6845C106.577 40.8493 106.346 40.8855 106.181 40.7653C106.016 40.6451 105.98 40.414 106.1 40.2491L106.128 40.2106C106.248 40.0455 106.479 40.0089 106.644 40.1288ZM68.296 43.1457C68.4404 43.0016 68.6743 43.0018 68.8184 43.1462L68.8521 43.1799C68.9965 43.3241 68.9968 43.558 68.8526 43.7024C68.7085 43.8468 68.4746 43.847 68.3302 43.7029L68.2955 43.6681C68.1513 43.5237 68.1515 43.2898 68.296 43.1457ZM104.146 43.1457C104.291 43.2898 104.291 43.5237 104.147 43.6681L104.112 43.7029C103.968 43.847 103.734 43.8468 103.59 43.7024C103.445 43.558 103.446 43.3241 103.59 43.1799L103.624 43.1462C103.768 43.0018 104.002 43.0016 104.146 43.1457ZM71.233 45.7373C71.3532 45.5724 71.5843 45.5363 71.7492 45.6565L71.7877 45.6845C71.9528 45.8044 71.9894 46.0354 71.8695 46.2005C71.7496 46.3656 71.5186 46.4022 71.3535 46.2823L71.3138 46.2534C71.149 46.1332 71.1128 45.9021 71.233 45.7373ZM101.209 45.7373C101.329 45.9021 101.293 46.1332 101.128 46.2534L101.089 46.2823C100.924 46.4022 100.692 46.3656 100.573 46.2005C100.453 46.0354 100.489 45.8044 100.654 45.6845L100.693 45.6565C100.858 45.5363 101.089 45.5724 101.209 45.7373ZM74.5381 47.8392C74.631 47.6576 74.8536 47.5857 75.0353 47.6786L75.0777 47.7003C75.2595 47.7929 75.3318 48.0154 75.2393 48.1972C75.1467 48.379 74.9242 48.4513 74.7424 48.3587L74.6987 48.3364C74.517 48.2434 74.4451 48.0208 74.5381 47.8392ZM97.904 47.8392C97.997 48.0208 97.9251 48.2434 97.7435 48.3364L97.6997 48.3587C97.5179 48.4513 97.2955 48.379 97.2029 48.1972C97.1103 48.0154 97.1826 47.7929 97.3644 47.7003L97.4069 47.6786C97.5885 47.5857 97.8111 47.6576 97.904 47.8392ZM78.132 49.3967C78.1952 49.2027 78.4037 49.0967 78.5977 49.1599L78.6431 49.1747C78.8372 49.2375 78.9437 49.4458 78.8809 49.6399C78.818 49.834 78.6097 49.9404 78.4156 49.8776L78.3688 49.8624C78.1749 49.7992 78.0688 49.5907 78.132 49.3967ZM94.3101 49.3967C94.3733 49.5907 94.2673 49.7992 94.0733 49.8624L94.0265 49.8776C93.8324 49.9404 93.6241 49.834 93.5613 49.6399C93.4985 49.4458 93.6049 49.2375 93.799 49.1747L93.8444 49.1599C94.0384 49.0967 94.2469 49.2027 94.3101 49.3967ZM81.9268 50.3687C81.9587 50.1671 82.1479 50.0296 82.3494 50.0615L82.3967 50.0689C82.5983 50.1004 82.7362 50.2893 82.7047 50.4909C82.6732 50.6925 82.4843 50.8304 82.2827 50.7989L82.234 50.7913C82.0325 50.7594 81.8949 50.5702 81.9268 50.3687ZM90.5153 50.3687C90.5472 50.5702 90.4097 50.7594 90.2081 50.7913L90.1595 50.7989C89.9579 50.8304 89.7689 50.6925 89.7375 50.4909C89.706 50.2893 89.8439 50.1004 90.0455 50.0689L90.0927 50.0615C90.2942 50.0296 90.4834 50.1671 90.5153 50.3687ZM85.8273 50.7336C85.8275 50.5295 85.993 50.3643 86.1971 50.3645H86.2451C86.4491 50.3643 86.6146 50.5295 86.6148 50.7336C86.615 50.9376 86.4498 51.1031 86.2458 51.1033H86.1964C85.9923 51.1031 85.8271 50.9376 85.8273 50.7336Z" fill="white"/>
<path d="M87.043 50.7337C87.043 51.1871 86.6754 51.5547 86.222 51.5547C85.7686 51.5547 85.4011 51.1871 85.4011 50.7337C85.4011 50.2804 85.7686 49.9128 86.222 49.9128C86.6754 49.9128 87.043 50.2804 87.043 50.7337Z" fill="#6966FF"/>
<path d="M111.18 26.5977C110.727 26.5977 110.359 26.2301 110.359 25.7767C110.359 25.3233 110.727 24.9558 111.18 24.9558C111.634 24.9558 112.001 25.3233 112.001 25.7767C112.001 26.2301 111.634 26.5977 111.18 26.5977Z" fill="#6966FF"/>
<path d="M87.043 0.819682C87.043 1.27308 86.6754 1.64062 86.222 1.64062C85.7686 1.64062 85.4011 1.27308 85.4011 0.819682C85.4011 0.366287 85.7686 -0.00126135 86.222 -0.00126131C86.6754 -0.00126127 87.043 0.366288 87.043 0.819682Z" fill="#6966FF"/>
<path fill-rule="evenodd" clip-rule="evenodd" d="M93.3934 10.3887H100.202L78.2813 41.0895H71.5859L93.3934 10.3887ZM85.3952 19.4352L78.9788 10.3887H72.1439L82.0475 24.3697L85.3952 19.4352ZM83.7167 19.4526L82.023 21.9491L74.811 11.7679H78.2661L83.7167 19.4526ZM74.2573 39.7103H77.5714L97.5224 11.7679H94.1054L74.2573 39.7103Z" fill="white"/>
<path fill-rule="evenodd" clip-rule="evenodd" d="M94.8183 39.6851C94.8645 39.7494 94.9389 39.7874 95.018 39.7874H98.203L90.636 29.0423C90.5378 28.9028 90.3309 28.9031 90.233 29.0429L88.8152 31.0684C88.7551 31.1541 88.7559 31.2685 88.8171 31.3534L94.8183 39.6851ZM87.0234 31.223L94.1857 41.1666H100.861L90.4307 26.3555L87.0234 31.223Z" fill="url(#paint0_linear_2352_30302)"/>
<path fill-rule="evenodd" clip-rule="evenodd" d="M23.4077 10.3887H17.5557V19.5238C15.8656 18.6197 13.9253 18.1055 11.8619 18.1055C5.31076 18.1055 0 23.288 0 29.6808C0 36.0737 5.31076 41.2561 11.8619 41.2561C13.9253 41.2561 15.8656 40.742 17.5557 39.8379V40.9805H23.4077V10.3887ZM18.5177 29.6199C18.5177 33.2406 15.5098 36.1758 11.7994 36.1758C8.08904 36.1758 5.08118 33.2406 5.08118 29.6199C5.08118 25.9991 8.08904 23.0639 11.7994 23.0639C15.5098 23.0639 18.5177 25.9991 18.5177 29.6199ZM47.1188 10.3887L25.3583 40.9806H32.1803L53.9197 10.3887H47.1188ZM64.0924 10.3887H69.9444V40.9805H64.0924V39.8379C62.4023 40.742 60.462 41.2561 58.3986 41.2561C51.8474 41.2561 46.5367 36.0737 46.5367 29.6808C46.5367 23.288 51.8474 18.1055 58.3986 18.1055C60.462 18.1055 62.4023 18.6197 64.0924 19.5238V10.3887ZM58.3361 36.1758C62.0465 36.1758 65.0544 33.2406 65.0544 29.6199C65.0544 25.9991 62.0465 23.0639 58.3361 23.0639C54.6257 23.0639 51.6179 25.9991 51.6179 29.6199C51.6179 33.2406 54.6257 36.1758 58.3361 36.1758ZM39.0113 19.6762L32.184 10.3887H25.0781L35.2493 24.8663L39.0113 19.6762Z" fill="white"/>
<defs>
<linearGradient id="paint0_linear_2352_30302" x1="95.6897" y1="38.8354" x2="84.6571" y2="23.6765" gradientUnits="userSpaceOnUse">
<stop stop-color="#6966FF"/>
<stop offset="1" stop-color="#6966FF" stop-opacity="0.36"/>
</linearGradient>
</defs>
</svg>
